<svg xmlns="http://www.w3.org/2000/svg" version="1.1" xmlns:xlink="http://www.w3.org/1999/xlink" xmlns:svgjs="http://svgjs.com/svgjs" width="360pt" height="360pt"><svg height="360pt" version="1.1" viewBox="0 0 360 360" width="360pt" xmlns="http://www.w3.org/2000/svg" xmlns:xlink="http://www.w3.org/1999/xlink">
 <metadata>
  <rdf:rdf xmlns:cc="http://creativecommons.org/ns#" xmlns:dc="http://purl.org/dc/elements/1.1/" xmlns:rdf="http://www.w3.org/1999/02/22-rdf-syntax-ns#">
   <cc:work>
    <dc:type rdf:resource="http://purl.org/dc/dcmitype/StillImage"></dc:type>
    <dc:date>2022-09-29T19:18:09.804048</dc:date>
    <dc:format>image/svg+xml</dc:format>
    <dc:creator>
     <cc:agent>
      <dc:title>Matplotlib v3.4.2, https://matplotlib.org/</dc:title>
     </cc:agent>
    </dc:creator>
   </cc:work>
  </rdf:rdf>
 </metadata>
 <defs>
  <style type="text/css">*{stroke-linecap:butt;stroke-linejoin:round;}</style>
 </defs>
 <g id="SvgjsG1004">
  <g id="SvgjsG1003">
   <path d="M 0 360 
L 360 360 
L 360 0 
L 0 0 
z
" style="fill:#ffffff;"></path>
  </g>
  <g id="SvgjsG1002">
   <g id="SvgjsG1001">
    <path clip-path="url(#p466b22b205)" d="M 180 5.346535 
L 171.414403 5.735085 
L 192.256856 6.512186 
L 157.1072 6.900737 
L 201.918851 7.289287 
L 172.616526 7.677838 
L 165.848832 8.066388 
L 210.813819 8.454939 
L 147.856133 8.843489 
L 195.527677 9.23204 
L 191.493006 9.620591 
L 145.316567 10.009141 
L 220.727379 10.397692 
L 155.125821 10.786242 
L 174.250123 11.174793 
L 215.314249 11.563343 
L 132.46262 11.951894 
L 214.682744 12.340444 
L 146.992102 13.117545 
L 232.288778 13.506096 
L 135.69764 13.894646 
L 192.104898 14.283197 
L 207.994426 14.671747 
L 125.282518 15.060298 
L 233.140697 15.448849 
L 156.983268 15.837399 
L 159.463187 16.22595 
L 234.631404 16.6145 
L 119.336002 17.003051 
L 214.471105 17.391601 
L 190.961863 17.780152 
L 128.068249 18.168702 
L 246.406358 18.557253 
L 134.116248 18.945803 
L 226.622661 19.722904 
L 110.018434 20.111455 
L 236.682269 20.500006 
L 167.10898 20.888556 
L 141.185964 21.277107 
L 251.094582 21.665657 
L 113.678319 22.054208 
L 206.19737 22.442758 
L 208.719256 22.831309 
L 110.448899 23.219859 
L 254.301602 23.60841 
L 140.293722 23.99696 
L 163.351473 24.385511 
L 245.264287 24.774061 
L 99.816744 25.162612 
L 232.854196 25.551162 
L 121.741882 26.328264 
L 263.605168 26.716814 
L 114.91912 27.105365 
L 191.762145 27.493915 
L 228.667046 27.882466 
L 95.703347 28.271016 
L 255.849777 28.659567 
L 152.891804 29.048117 
L 143.268154 29.436668 
L 262.088431 29.825218 
L 95.332066 30.213769 
L 222.477894 30.602319 
L 202.791726 30.99087 
L 103.080129 31.37942 
L 271.104657 31.767971 
L 122.707285 32.156522 
L 172.727082 32.545072 
L 248.84252 32.933623 
L 85.191813 33.322173 
L 250.978633 33.710724 
L 170.674088 34.099274 
L 121.980276 34.487825 
L 275.519768 34.876375 
L 97.012676 35.264926 
L 206.450939 35.653476 
L 224.722311 36.042027 
L 86.915427 36.430577 
L 272.816667 36.819128 
L 136.487425 37.207678 
L 150.679573 37.596229 
L 267.459062 37.98478 
L 79.970178 38.37333 
L 239.906329 38.761881 
L 192.271784 39.150431 
L 101.285507 39.538982 
L 284.272197 39.927532 
L 104.965586 40.316083 
L 247.036409 41.093184 
L 74.714297 41.481734 
L 268.327352 41.870285 
L 155.410322 42.258835 
L 127.279904 42.647386 
L 282.919773 43.035937 
L 80.73516 43.424487 
L 223.197062 43.813038 
L 216.162127 44.201588 
L 82.861269 44.590139 
L 287.395136 44.978689 
L 118.918519 45.36724 
L 162.151744 45.75579 
L 268.025229 46.144341 
L 67.647712 46.532891 
L 257.617263 46.921442 
L 104.220401 47.698543 
L 293.870587 48.087093 
L 87.790898 48.475644 
L 201.753323 48.864195 
L 240.715099 49.252745 
L 68.204277 49.641296 
L 284.313332 50.029846 
L 138.224731 50.418397 
L 136.750821 50.806947 
L 286.092236 51.195498 
L 66.542287 51.584048 
L 241.063719 51.972599 
L 203.891042 52.361149 
L 83.153039 52.7497 
L 299.259008 53.13825 
L 101.036383 53.526801 
L 264.268313 54.303902 
L 58.562259 54.692453 
L 274.851501 55.081003 
L 161.896229 55.469554 
L 111.318593 55.858104 
L 299.829615 56.246655 
L 71.842711 56.635205 
L 219.418709 57.023756 
L 230.51912 57.412306 
L 65.606856 57.800857 
L 298.384541 58.189407 
L 119.97448 58.577958 
L 149.690628 58.966508 
L 285.213226 59.355059 
L 54.8715 59.74361 
L 259.239626 60.13216 
L 188.659019 60.520711 
L 87.499516 60.909261 
L 308.091274 61.297812 
L 83.591571 61.686362 
L 193.765151 62.074913 
L 256.586351 62.463463 
L 52.906384 62.852014 
L 290.933664 63.240564 
L 143.742325 63.629115 
L 122.085972 64.017665 
L 302.082875 64.406216 
L 57.707767 64.794766 
L 238.097262 65.183317 
L 217.02558 65.571868 
L 66.86319 65.960418 
L 310.054791 66.348969 
L 101.429528 66.737519 
L 165.454447 67.12607 
L 280.463097 67.51462 
L 46.098553 67.903171 
L 276.995425 68.291721 
L 171.16163 68.680272 
L 95.605497 69.068822 
L 313.634018 69.457373 
L 67.255217 69.845923 
L 212.397056 70.234474 
L 245.379843 70.623024 
L 50.815593 71.011575 
L 305.267195 71.400126 
L 124.616746 71.788676 
L 136.029021 72.177227 
L 300.618771 72.565777 
L 45.893492 72.954328 
L 257.055822 73.342878 
L 200.806254 73.731429 
L 71.862693 74.119979 
L 318.918061 74.50853 
L 83.295958 74.89708 
L 272.069624 75.674181 
L 40.518489 76.062732 
L 293.671223 76.451283 
L 152.074846 76.839833 
L 107.134196 77.228384 
L 315.709724 77.616934 
L 52.62318 78.005485 
L 231.970783 78.394035 
L 231.083403 78.782586 
L 52.346596 79.171136 
L 317.336301 79.559687 
L 105.221311 79.948237 
L 152.629209 80.336788 
L 295.501263 80.725338 
L 36.821889 81.113889 
L 275.610169 81.502439 
L 80.424308 82.279541 
L 324.657131 82.668091 
L 66.220617 83.056642 
L 202.918951 83.445192 
L 260.324025 83.833743 
L 38.335825 84.222293 
L 308.676149 84.610844 
L 132.064421 84.999394 
L 121.694354 85.387945 
L 314.231161 85.776495 
L 40.213484 86.165046 
L 251.810818 86.553596 
L 214.175321 86.942147 
L 57.468237 87.330697 
L 326.710431 87.719248 
L 86.220844 88.107799 
L 171.336731 88.496349 
L 286.877475 88.8849 
L 30.824096 89.27345 
L 293.12618 89.662001 
L 162.552584 90.050551 
L 92.290824 90.439102 
L 327.049162 90.827652 
L 50.787955 91.216203 
L 223.345271 91.604753 
L 245.584436 91.993304 
L 39.659542 92.381854 
L 321.492773 92.770405 
L 111.783871 93.158955 
L 138.83907 93.547506 
L 309.205275 93.936057 
L 30.461342 94.324607 
L 271.269109 94.713158 
L 195.176479 95.101708 
L 66.059125 95.490259 
L 333.049179 95.878809 
L 68.237898 96.26736 
L 191.573681 96.65591 
L 274.978257 97.044461 
L 28.136124 97.433011 
L 309.02592 97.821562 
L 141.73833 98.210112 
L 107.130252 98.598663 
L 325.968851 98.987214 
L 37.513676 99.375764 
L 244.053005 99.764315 
L 228.272587 100.152865 
L 44.501398 100.541416 
L 331.683189 100.929966 
L 91.866915 101.318517 
L 158.070981 101.707067 
L 300.733144 102.095618 
L 23.713809 102.484168 
L 289.733244 102.872719 
L 77.909569 103.64982 
L 336.106461 104.03837 
L 51.844429 104.426921 
L 212.742313 104.815472 
L 260.11432 105.204022 
L 28.896177 105.592573 
L 322.795653 105.981123 
L 120.624154 106.369674 
L 124.541584 106.758224 
L 321.389334 107.146775 
L 26.837479 107.535325 
L 264.420603 107.923876 
L 208.866293 108.312426 
L 52.77697 108.700977 
L 338.895129 109.089527 
L 72.917272 109.478078 
L 289.006906 110.255179 
L 20.225183 110.64373 
L 306.636459 111.03228 
L 153.158457 111.420831 
L 92.726676 111.809381 
L 335.733338 112.197932 
L 37.552409 112.586482 
L 234.236157 112.975033 
L 242.669198 113.363583 
L 33.143846 113.752134 
L 333.994191 114.140684 
L 99.821295 114.529235 
L 144.063574 114.917785 
L 313.380873 115.306336 
L 19.116112 115.694887 
L 283.851691 116.083437 
L 187.889175 116.471988 
L 64.309148 116.860538 
L 342.867169 117.249089 
L 55.497387 117.637639 
L 200.611271 118.02619 
L 274.304127 118.41474 
L 20.15377 118.803291 
L 321.46811 119.191841 
L 131.316678 119.580392 
L 110.14199 119.968942 
L 331.879071 120.357493 
L 25.804555 120.746043 
L 255.452702 121.134594 
L 223.089812 121.523145 
L 40.821312 121.911695 
L 342.260613 122.300246 
L 79.920001 122.688796 
L 165.185715 123.077347 
L 302.10735 123.465897 
L 14.61752 123.854448 
L 301.787277 124.242998 
L 165.898485 124.631549 
L 78.833871 125.020099 
L 343.432487 125.40865 
L 40.117108 125.7972 
L 222.765159 126.185751 
L 256.979972 126.574301 
L 23.560417 126.962852 
L 333.783725 127.351403 
L 109.713271 127.739953 
L 129.721204 128.128504 
L 324.590219 128.517054 
L 16.965905 128.905605 
L 275.806762 129.294155 
L 201.875156 129.682706 
L 51.776646 130.071256 
L 347.320754 130.459807 
L 61.476616 130.848357 
L 287.820645 131.625458 
L 13.516534 132.014009 
L 317.717756 132.402559 
L 143.471676 132.79111 
L 96.007933 133.179661 
L 340.520807 133.568211 
L 27.222971 133.956762 
L 244.724133 134.345312 
L 237.457443 134.733863 
L 30.409009 135.122413 
L 343.21406 135.510964 
L 88.929289 135.899514 
L 150.975587 136.288065 
L 314.007671 136.676615 
L 11.316741 137.065166 
L 294.743905 137.453716 
L 65.769172 138.230818 
L 348.992052 138.619368 
L 45.00104 139.007919 
L 210.018603 139.396469 
L 270.853013 139.78502 
L 15.892428 140.17357 
L 331.194173 140.562121 
L 121.192231 140.950671 
L 115.418628 141.339222 
L 334.158351 141.727772 
L 17.188609 142.116323 
L 265.910479 142.504873 
L 216.215989 142.893424 
L 40.569048 143.281974 
L 349.472701 143.670525 
L 69.517897 144.059076 
L 300.361616 144.836177 
L 9.047216 145.224727 
L 311.753433 145.613278 
L 156.718873 146.001828 
L 82.476824 146.390379 
L 347.186502 146.778929 
L 30.945008 147.16748 
L 232.58021 147.55603 
L 251.607643 147.944581 
L 21.728499 148.333131 
L 341.838291 148.721682 
L 99.635202 149.110232 
L 136.595014 149.498783 
L 324.465689 149.887334 
L 10.306649 150.275884 
L 285.771721 150.664435 
L 193.778781 151.052985 
L 53.820305 151.441536 
L 352.36194 151.830086 
L 51.991058 152.218637 
L 196.360526 152.607187 
L 283.964506 152.995738 
L 10.253925 153.384288 
L 326.380482 153.772839 
L 133.916101 154.161389 
L 101.505331 154.54994 
L 341.911529 154.938491 
L 19.691599 155.327041 
L 254.47265 155.715592 
L 230.547577 156.104142 
L 30.913784 156.492693 
L 349.35114 156.881243 
L 79.352877 157.269794 
L 159.020522 157.658344 
L 311.653478 158.046895 
L 6.782381 158.435445 
L 303.794222 158.823996 
L 69.859505 159.601097 
L 351.776664 159.989647 
L 36.807087 160.378198 
L 219.361263 160.766749 
L 265.202165 161.155299 
L 14.938566 161.54385 
L 338.236898 161.9324 
L 111.726624 162.320951 
L 122.399059 162.709501 
L 333.268716 163.098052 
L 11.546268 163.486602 
L 275.143389 163.875153 
L 208.183279 164.263703 
L 43.246909 164.652254 
L 353.519788 165.040804 
L 60.860943 165.429355 
L 296.016153 166.206456 
L 6.729417 166.595007 
L 319.515907 166.983557 
L 147.545206 167.372108 
L 88.308897 167.760658 
L 347.706144 168.149209 
L 24.359446 168.537759 
L 241.806751 168.92631 
L 244.523214 169.31486 
L 23.008776 169.703411 
L 347.010579 170.091961 
L 90.703606 170.480512 
L 144.653244 170.869062 
L 321.45037 171.257613 
L 6.729678 171.646164 
L 294.074358 172.034714 
L 58.442016 172.811815 
L 354.222107 173.200366 
L 44.625506 173.588916 
L 205.407104 173.977467 
L 277.923689 174.366017 
L 10.167467 174.754568 
L 332.53779 175.143118 
L 124.886956 175.531669 
L 108.726548 175.920219 
L 340.233631 176.30877 
L 14.967042 176.69732 
L 263.142856 177.085871 
L 222.427056 177.474422 
L 34.281153 177.862972 
L 352.473037 178.251523 
L 71.367803 178.640073 
L 167.727369 179.028624 
L 306.733978 179.417174 
L 5.372507 179.805725 
L 310.795153 180.194275 
L 161.739034 180.582826 
L 76.136659 180.971376 
L 351.42943 181.359927 
L 31.051294 181.748477 
L 228.23305 182.137028 
L 257.811608 182.525578 
L 17.022314 182.914129 
L 342.533998 183.30268 
L 103.279627 183.69123 
L 130.618121 184.079781 
L 329.53375 184.468331 
L 8.866294 184.856882 
L 282.845852 185.245432 
L 199.450676 185.633983 
L 48.486409 186.022533 
L 354.484992 186.411084 
L 54.194158 186.799634 
L 289.474667 187.576735 
L 7.512379 187.965286 
L 324.895104 188.353836 
L 138.791872 188.742387 
L 95.90149 189.130938 
L 345.206992 189.519488 
L 20.471306 189.908039 
L 250.067453 190.296589 
L 236.169446 190.68514 
L 27.12801 191.07369 
L 349.260067 191.462241 
L 83.250178 191.850791 
L 153.449884 192.239342 
L 315.867737 192.627892 
L 6.205149 193.016443 
L 300.436015 193.404993 
L 65.276547 194.182095 
L 352.999849 194.570645 
L 39.599493 194.959196 
L 214.080219 195.347746 
L 270.095838 195.736297 
L 13.093004 196.124847 
L 336.033921 196.513398 
L 116.776466 196.901948 
L 117.251521 197.290499 
L 335.712152 197.679049 
L 13.138171 198.0676 
L 270.379851 198.45615 
L 213.527954 198.844701 
L 40.231234 199.233251 
L 352.559308 199.621802 
L 65.28336 200.010353 
L 299.576636 200.787454 
L 7.0392 201.176004 
L 315.49016 201.564555 
L 153.108126 201.953105 
L 84.233902 202.341656 
L 348.064976 202.730206 
L 27.93157 203.118757 
L 236.229005 203.507307 
L 249.078174 203.895858 
L 21.965538 204.284408 
L 343.950666 204.672959 
L 96.227059 205.061509 
L 139.658709 205.45006 
L 323.190434 205.838611 
L 9.217415 206.227161 
L 288.680206 206.615712 
L 190.445315 207.004262 
L 55.997732 207.392813 
L 352.367088 207.781363 
L 49.808957 208.169914 
L 199.68628 208.558464 
L 281.072584 208.947015 
L 11.329989 209.335565 
L 327.65285 209.724116 
L 130.874771 210.112666 
L 104.881845 210.501217 
L 339.820766 210.889768 
L 19.459794 211.278318 
L 256.967376 211.666869 
L 226.947292 212.055419 
L 33.892136 212.44397 
L 348.470864 212.83252 
L 77.639262 213.221071 
L 162.565571 213.609621 
L 307.969475 213.998172 
L 8.782776 214.386722 
L 304.531868 214.775273 
L 167.492704 215.163823 
L 74.020671 215.552374 
L 348.712943 215.940924 
L 37.190317 216.329475 
L 221.954581 216.718026 
L 260.828427 217.106576 
L 18.945529 217.495127 
L 336.646017 217.883677 
L 109.997258 218.272228 
L 126.696875 218.660778 
L 328.497491 219.049329 
L 14.367741 219.437879 
L 275.793813 219.82643 
L 204.260318 220.21498 
L 48.551611 220.603531 
L 349.511574 220.992081 
L 61.456909 221.380632 
L 290.451033 222.157733 
L 11.813675 222.546284 
L 317.563294 222.934834 
L 145.239515 223.323385 
L 93.830705 223.711935 
L 341.720485 224.100486 
L 27.714419 224.489036 
L 242.919968 224.877587 
L 239.365885 225.266137 
L 29.663019 225.654688 
L 342.276782 226.043238 
L 90.983413 226.431789 
L 149.121839 226.820339 
L 314.410061 227.20889 
L 12.747695 227.597441 
L 292.256919 227.985991 
L 65.547038 228.763092 
L 347.084344 229.151643 
L 48.060095 229.540193 
L 207.587483 229.928744 
L 271.101265 230.317294 
L 18.194877 230.705845 
L 327.478271 231.094395 
L 124.238626 231.482946 
L 114.907511 231.871496 
L 331.60512 232.260047 
L 21.583713 232.648597 
L 262.067827 233.037148 
L 217.242584 233.425699 
L 43.173667 233.814249 
L 344.443311 234.2028 
L 74.292674 234.59135 
L 171.579927 234.979901 
L 297.950818 235.368451 
L 14.597274 235.757002 
L 305.967586 236.145552 
L 159.518671 236.534103 
L 84.415108 236.922653 
L 341.295983 237.311204 
L 37.754688 237.699754 
L 228.570752 238.088305 
L 250.439521 238.476855 
L 27.718324 238.865406 
L 334.06441 239.253957 
L 105.012031 239.642507 
L 136.692489 240.031058 
L 318.669676 240.419608 
L 18.909884 240.808159 
L 278.930081 241.196709 
L 195.038265 241.58526 
L 59.089455 241.97381 
L 343.138604 242.362361 
L 60.323743 242.750911 
L 193.489112 243.139462 
L 279.580586 243.528012 
L 19.818214 243.916563 
L 316.609744 244.305113 
L 138.606527 244.693664 
L 104.63697 245.082215 
L 332.347194 245.470765 
L 30.763515 245.859316 
L 247.8192 246.247866 
L 229.025964 246.636417 
L 40.087041 247.024967 
L 337.199746 247.413518 
L 88.037202 247.802068 
L 158.602275 248.190619 
L 303.298084 248.579169 
L 19.709654 248.96772 
L 293.09768 249.35627 
L 76.951662 250.133372 
L 338.452152 250.521922 
L 49.403629 250.910473 
L 214.276638 251.299023 
L 259.818246 251.687574 
L 28.217267 252.076124 
L 323.949439 252.464675 
L 119.39443 252.853225 
L 125.650231 253.241776 
L 320.529144 253.630326 
L 27.219435 254.018877 
L 264.844994 254.407427 
L 207.448381 254.795978 
L 54.92097 255.184528 
L 336.857321 255.573079 
L 73.734525 255.96163 
L 285.947355 256.738731 
L 23.902694 257.127281 
L 304.2317 257.515832 
L 152.730702 257.904382 
L 96.240808 258.292933 
L 330.569511 258.681483 
L 41.778348 259.070034 
L 233.393159 259.458584 
L 239.229176 259.847135 
L 39.509131 260.235685 
L 327.84205 260.624236 
L 102.381804 261.012786 
L 146.861733 261.401337 
L 306.218161 261.789888 
L 27.160407 262.178438 
L 279.215134 262.566989 
L 71.764454 263.34409 
L 333.10768 263.73264 
L 62.456135 264.121191 
L 200.42275 264.509741 
L 267.138157 264.898292 
L 31.311585 265.286842 
L 312.072779 265.675393 
L 133.769692 266.063943 
L 116.387685 266.452494 
L 319.769882 266.841045 
L 37.605505 267.229595 
L 250.326078 267.618146 
L 218.413003 268.006696 
L 53.3212 268.395247 
L 328.2375 268.783797 
L 88.015945 269.172348 
L 167.660629 269.560898 
L 289.868831 269.949449 
L 30.526637 270.337999 
L 290.56253 270.72655 
L 166.209038 271.1151 
L 90.095042 271.503651 
L 326.119331 271.892201 
L 54.476499 272.280752 
L 219.167947 272.669303 
L 247.444448 273.057853 
L 41.66375 273.446404 
L 316.448605 273.834954 
L 116.985332 274.223505 
L 136.784939 274.612055 
L 306.421926 275.000606 
L 36.948931 275.389156 
L 264.611592 275.777707 
L 197.991204 276.166257 
L 69.199833 276.554808 
L 325.183345 276.943358 
L 76.681242 277.331909 
L 272.005909 278.10901 
L 37.159792 278.497561 
L 298.595185 278.886111 
L 147.739945 279.274662 
L 109.333078 279.663212 
L 316.157256 280.051763 
L 49.985082 280.440313 
L 235.732633 280.828864 
L 227.482734 281.217414 
L 54.595085 281.605965 
L 317.279201 281.994515 
L 102.860875 282.383066 
L 156.798541 282.771616 
L 290.978163 283.160167 
L 39.77556 283.548717 
L 275.844821 283.937268 
L 86.617642 284.714369 
L 318.825721 285.10292 
L 68.6906 285.49147 
L 205.564321 285.880021 
L 253.215661 286.268571 
L 46.804187 286.657122 
L 303.102992 287.045672 
L 131.468301 287.434223 
L 128.851346 287.822773 
L 303.579733 288.211324 
L 49.081516 288.599874 
L 249.610166 288.988425 
L 207.90185 289.376976 
L 69.654913 289.765526 
L 314.579717 290.154077 
L 91.826072 290.542627 
L 273.968553 291.319728 
L 45.954677 291.708279 
L 283.687197 292.096829 
L 160.856899 292.48538 
L 104.981036 292.87393 
L 309.408142 293.262481 
L 64.279819 293.651031 
L 221.467242 294.039582 
L 234.137609 294.428132 
L 59.109739 294.816683 
L 303.961431 295.205234 
L 117.92951 295.593784 
L 147.983607 295.982335 
L 288.833895 296.370885 
L 51.773842 296.759436 
L 260.339788 297.147986 
L 189.374619 297.536537 
L 86.311556 297.925087 
L 308.4603 298.313638 
L 84.251997 298.702188 
L 193.064837 299.090739 
L 255.994196 299.479289 
L 55.259765 299.86784 
L 287.869769 300.25639 
L 145.400831 300.644941 
L 123.636756 301.033492 
L 297.26821 301.422042 
L 63.606243 301.810593 
L 234.568311 302.199143 
L 215.458277 302.587694 
L 73.636345 302.976244 
L 301.131019 303.364795 
L 107.624098 303.753345 
L 166.030026 304.141896 
L 272.450741 304.530446 
L 57.980831 304.918997 
L 267.50786 305.307547 
L 103.957386 306.084649 
L 299.122288 306.473199 
L 80.452032 306.86175 
L 207.993247 307.2503 
L 237.722867 307.638851 
L 67.373382 308.027401 
L 288.189984 308.415952 
L 132.845529 308.804502 
L 141.875088 309.193053 
L 282.832215 309.581603 
L 66.754098 309.970154 
L 244.314326 310.358704 
L 197.909949 310.747255 
L 89.859105 311.135805 
L 294.650131 311.524356 
L 101.023576 311.912907 
L 255.040904 312.690008 
L 67.540527 313.078558 
L 270.738839 313.467109 
L 158.276828 313.855659 
L 121.911131 314.24421 
L 286.84897 314.63276 
L 80.69404 315.021311 
L 219.882628 315.409861 
L 219.889667 315.798412 
L 81.896232 316.186962 
L 284.496572 316.575513 
L 123.816626 316.964063 
L 158.925095 317.352614 
L 266.607338 317.741165 
L 73.752082 318.129715 
L 250.151567 318.518266 
L 107.173525 319.295367 
L 284.615648 319.683917 
L 98.59489 320.072468 
L 195.873993 320.461018 
L 237.293621 320.849569 
L 80.230311 321.238119 
L 269.665184 321.62667 
L 147.190748 322.01522 
L 139.412868 322.403771 
L 271.986215 322.792322 
L 85.235928 323.180872 
L 228.003028 323.569423 
L 203.3102 323.957973 
L 98.36398 324.346524 
L 276.649026 324.735074 
L 118.991182 325.123625 
L 173.930854 325.512175 
L 249.169745 325.900726 
L 84.617903 326.289276 
L 251.470077 326.677827 
L 169.45185 327.066377 
L 124.899536 327.454928 
L 271.135946 327.843478 
L 100.868588 328.232029 
L 205.992948 328.62058 
L 219.984289 329.00913 
L 95.814157 329.397681 
L 263.846113 329.786231 
L 140.225233 330.174782 
L 155.600353 330.563332 
L 254.898148 330.951883 
L 94.420181 331.340433 
L 231.478277 331.728984 
L 188.925993 332.117534 
L 116.284276 332.506085 
L 264.410212 332.894635 
L 119.222596 333.283186 
L 185.877317 333.671736 
L 231.140825 334.060287 
L 99.477175 334.448838 
L 247.446194 334.837388 
L 160.508772 335.225939 
L 142.2839 335.614489 
L 254.203146 336.00304 
L 108.633909 336.39159 
L 211.455584 336.780141 
L 204.004442 337.168691 
L 114.174588 337.557242 
L 252.529449 337.945792 
L 138.61457 338.334343 
L 169.431548 338.722893 
L 235.838565 339.111444 
L 108.960769 339.499994 
L 228.984467 339.888545 
L 135.249933 340.665646 
L 247.105023 341.054197 
L 125.944864 341.442747 
L 193.346566 341.831298 
L 213.10842 342.219848 
L 118.964289 342.608399 
L 236.504915 342.996949 
L 157.125511 343.3855 
L 158.514481 343.77405 
L 233.229385 344.162601 
L 123.651588 344.551151 
L 210.253354 344.939702 
L 190.460439 345.328253 
L 135.838592 345.716803 
L 233.704768 346.105354 
L 144.822221 346.493904 
L 214.372222 347.271005 
L 131.210706 347.659556 
L 217.414087 348.048106 
L 172.492284 348.436657 
L 155.542163 348.825207 
L 221.896341 349.213758 
L 143.222529 349.602308 
L 193.306463 349.990859 
L 195.069813 350.379409 
L 146.637527 350.76796 
L 213.055814 351.156511 
L 163.887362 351.545061 
L 173.054481 351.933612 
L 203.457927 352.322162 
L 154.278812 352.710713 
L 194.771635 353.099263 
L 168.254645 353.876364 
L 191.636661 354.264915 
L 180 354.653465 
L 180 354.653465 
" style="fill:none;stroke:#000000;stroke-linecap:square;stroke-width:1.5;"></path>
   </g>
  </g>
 </g>
 <defs>
  <clipPath id="SvgjsClipPath1000">
   <rect height="352.8" width="352.8" x="3.6" y="3.6"></rect>
  </clipPath>
 </defs>
</svg><style>@media (prefers-color-scheme: light) { :root { filter: none; } }
</style></svg>